# xmcd
#
# Track frame offsets:
#	182
#	10635
#	23300
#	36242
#	45710
#	59990
#	72290
#	85710
#	98470
#	110600
#	121542
#	133812
#	147695
#	160580
#	171975
#	185270
#	197282
#	208127
#	219945
#	230640
#	242795
#	254902
#	266670
#	279302
#	288302
#
# Disc length: 4038 seconds
#
# Revision: 6
# Processed by: cddbd v1.5.2PL0 Copyright (c) Steve Scherf et al.
# Submitted via: audiograbber 1.83.01
#
DISCID=6a0fc419
DTITLE=Various Artist - Country Gold
DYEAR=1995
DGENRE=Country
TTITLE0=David Houston - A woman always knows 1977
TTITLE1=Stonewall Jackson - Me and you and a dog named Boo 1982
TTITLE2=Wanda Jackson - Raining in my heart  
TTITLE3=Bobby Lewis - Hello Mary Lou 1976
TTITLE4=Bob Luman - Lonely women make good lovers 1977
TTITLE5=Jody Miller - There's a party going on 1980
TTITLE6=Johnny Paycheck - Somebody loves me 1983
TTITLE7=Kenny Price - Sheriff of Boone County 1976
TTITLE8=Johnny Horton - Done rovin'  
TTITLE9=Johnny Russell - Blue eyes cryin' in the rain 1982
TTITLE10=Jean Shepherd - Then he touched me 1978
TTITLE11=Jeannie Seely - One day at a time 1979
TTITLE12=Cal Smith - The lord knows i'm drinking'  1983
TTITLE13=Connie Smith - Just one time 1983
TTITLE14=Margo Smith - Don't break the heart that loves you 1982
TTITLE15=Faron Young - This little girl of mine 1977
TTITLE16=Freddy Weller - Promised land 1981
TTITLE17=David Houston - Already it's heaven 1977
TTITLE18=Jody Miller - Darling you can always comes back home 1980
TTITLE19=Johnny Paycheck - Keep on loving me 1983
TTITLE20=Jimmy Dean - Pickin'  sweethearts  
TTITLE21=Johnny Russell - Workin' man blues 1982
TTITLE22=Connie Smith - The hurtin's all over 1983
TTITLE23=Margo Smith - There i've said it 1982
TTITLE24=Faron Young - Your times comin' 1977
EXTD=
EXTT0=
EXTT1=
EXTT2=
EXTT3=
EXTT4=
EXTT5=
EXTT6=
EXTT7=
EXTT8=
EXTT9=
EXTT10=
EXTT11=
EXTT12=
EXTT13=
EXTT14=
EXTT15=
EXTT16=
EXTT17=
EXTT18=
EXTT19=
EXTT20=
EXTT21=
EXTT22=
EXTT23=
EXTT24=
PLAYORDER=
